<?xml version="1.0" standalone="no"?>
<!DOCTYPE svg PUBLIC "-//W3C//DTD SVG 20010904//EN"
 "http://www.w3.org/TR/2001/REC-SVG-20010904/DTD/svg10.dtd">
<svg version="1.0" xmlns="http://www.w3.org/2000/svg"
 width="300.000000pt" height="156.000000pt" viewBox="0 0 300.000000 156.000000"
 preserveAspectRatio="xMidYMid meet">
<metadata>
Created by potrace 1.10, written by Peter Selinger 2001-2011
</metadata>
<g transform="translate(0.000000,156.000000) scale(0.100000,-0.100000)"
fill="#000000" stroke="none">
<path d="M1384 1400 c-17 -6 -29 -70 -13 -70 5 0 9 5 9 10 0 6 11 10 25 10 14
0 25 -4 25 -10 0 -5 4 -10 8 -10 4 0 8 18 7 40 0 34 -3 39 -22 38 -12 -1 -29
-5 -39 -8z"/>
<path d="M1460 1387 c0 -22 5 -26 33 -30 l32 -4 -32 -1 c-18 -1 -33 -6 -33
-10 0 -4 16 -6 35 -4 26 3 35 9 35 23 0 15 -7 19 -32 19 -40 0 -34 6 15 13 37
6 37 5 37 -29 0 -33 1 -34 38 -34 27 0 33 3 22 10 -8 5 -23 10 -32 10 -10 0
-18 7 -18 15 0 10 11 15 35 15 31 0 35 -3 35 -25 0 -14 5 -25 10 -25 6 0 10 4
10 9 0 5 9 7 20 4 11 -3 20 -12 20 -20 0 -28 18 -3 22 31 5 41 0 43 -153 53
l-99 6 0 -26z m214 -3 c24 -9 20 -33 -4 -27 -11 3 -20 12 -20 19 0 16 2 16 24
8z"/>
<path d="M1310 1389 c0 -7 -11 -9 -27 -5 -16 3 -23 3 -17 0 6 -2 9 -17 6 -33
-5 -34 3 -40 46 -34 29 5 32 9 32 38 0 21 -6 35 -16 39 -21 8 -24 8 -24 -5z
m30 -33 c0 -13 -20 -26 -41 -26 -5 0 -9 9 -9 20 0 15 7 20 25 20 15 0 25 -6
25 -14z"/>
<path d="M1724 1366 c-13 -33 1 -59 39 -72 22 -8 37 -9 37 -3 0 5 -13 12 -30
16 -16 3 -30 9 -30 14 0 5 12 4 26 -1 33 -13 32 -13 37 13 2 12 5 2 6 -22 1
-32 4 -42 12 -34 6 6 9 28 7 49 -3 37 -5 39 -35 37 -17 -2 -35 2 -38 7 -9 14
-25 12 -31 -4z"/>
<path d="M1210 1360 c-8 -5 -25 -7 -37 -3 -15 3 -23 1 -23 -7 0 -7 7 -10 15
-6 12 4 15 -3 15 -29 0 -19 5 -35 10 -35 6 0 10 6 10 14 0 8 14 19 30 25 20 7
30 17 30 30 0 23 -24 28 -50 11z"/>
<path d="M1490 1280 l0 -40 165 0 c95 0 165 4 165 9 0 17 -150 54 -267 66
l-63 6 0 -41z"/>
<path d="M1336 1258 c-19 -22 -31 -28 -33 -20 -3 7 1 19 7 27 7 8 8 15 3 15
-15 0 -33 -23 -33 -42 0 -11 -7 -18 -20 -18 -21 0 -27 15 -10 25 6 3 10 11 10
17 0 19 -29 -12 -32 -35 -2 -14 -9 -21 -19 -19 -9 1 -21 -9 -27 -23 -11 -23
-10 -25 13 -23 14 1 25 8 25 14 0 14 76 44 129 51 21 3 48 0 60 -6 26 -14 29
3 4 18 -17 10 -17 10 0 11 9 0 17 5 17 10 0 15 -26 12 -40 -5 -14 -17 -40 -20
-40 -4 0 6 9 13 20 16 11 3 17 9 14 14 -9 15 -18 10 -48 -23z"/>
<path d="M1500 1189 c0 -38 2 -41 23 -35 12 3 31 6 42 7 16 1 15 2 -5 8 -16 4
-25 14 -25 26 0 19 -12 35 -27 35 -5 0 -8 -19 -8 -41z"/>
<path d="M1790 1189 c0 -52 24 -48 28 4 2 28 -1 37 -12 37 -12 0 -16 -11 -16
-41z"/>
<path d="M1268 1155 c-12 -26 -34 -36 -24 -10 3 8 1 15 -4 15 -5 0 -10 -10
-12 -22 -2 -13 -9 -22 -17 -20 -13 3 -31 -14 -31 -30 0 -12 38 -9 42 2 4 14
75 39 111 40 15 0 27 5 27 10 0 6 10 15 23 20 l22 9 -22 0 c-12 1 -25 -3 -28
-9 -3 -5 -14 -10 -23 -10 -15 1 -15 2 2 15 16 12 17 15 4 15 -8 0 -22 -10 -31
-22 -8 -13 -18 -20 -22 -16 -4 4 -2 14 5 23 9 10 9 15 1 15 -6 0 -17 -11 -23
-25z"/>
<path d="M1410 1140 c-10 -6 -11 -10 -2 -10 6 0 12 -6 12 -14 0 -30 49 -27 51
3 0 12 2 12 9 -4 8 -19 9 -19 9 1 1 31 -46 45 -79 24z"/>
<path d="M1372 1042 c-2 -116 9 -152 58 -177 16 -8 43 -15 60 -15 18 0 29 -4
25 -10 -3 -5 1 -10 9 -10 9 0 16 6 16 13 1 15 50 52 50 37 0 -7 6 -8 19 0 31
16 102 12 123 -7 22 -19 36 -10 18 12 -10 12 -10 15 4 15 9 0 16 5 16 10 0 13
-16 13 -40 -2 -26 -16 -40 0 -16 18 16 11 17 14 4 14 -8 0 -21 -7 -28 -15 -18
-22 -32 -18 -25 8 6 21 5 21 -17 -4 -13 -14 -31 -29 -40 -32 -15 -5 -15 -2 -4
26 8 22 10 56 6 107 l-7 75 -2 -90 c-1 -68 -6 -95 -19 -111 -42 -53 -114 -59
-164 -15 -33 29 -33 30 -39 143 l-5 113 -2 -103z"/>
<path d="M1620 1105 l0 -35 95 0 95 0 0 35 0 35 -95 0 -95 0 0 -35z"/>
<path d="M1556 1123 c-8 -8 -13 -9 -41 -12 -8 0 -15 -5 -15 -11 0 -5 14 -7 33
-3 38 7 40 8 35 23 -2 6 -7 8 -12 3z"/>
<path d="M1300 1073 c-20 -26 -21 -27 -17 -5 4 15 1 22 -6 19 -7 -2 -13 -13
-15 -25 -2 -12 -8 -22 -14 -22 -6 0 -8 9 -5 20 6 21 -9 28 -16 8 -8 -25 5 -49
22 -43 9 4 37 11 64 17 29 7 47 17 47 26 0 12 -3 12 -15 2 -22 -19 -41 -7 -21
13 10 9 13 17 8 17 -6 0 -20 -12 -32 -27z"/>
<path d="M1464 1070 c-28 -11 -40 -30 -18 -30 14 0 14 -3 4 -15 -7 -9 -19 -14
-26 -11 -8 3 -18 -3 -24 -14 -15 -28 -12 -38 5 -16 8 11 18 17 21 13 4 -4 3
-12 -3 -19 -5 -7 -8 -19 -7 -25 1 -7 2 -17 3 -23 0 -5 6 -10 11 -10 6 0 8 10
5 23 -5 20 -3 23 17 21 13 -1 31 -3 41 -3 24 -1 21 -29 -5 -52 -13 -10 -18
-18 -12 -19 5 0 20 9 32 20 25 24 32 25 32 5 0 -8 -4 -15 -10 -15 -5 0 -10 -5
-10 -12 0 -6 9 -3 20 7 12 10 18 25 15 33 -3 8 0 21 6 28 16 19 2 34 -31 34
-32 0 -55 28 -47 58 3 12 5 10 6 -6 1 -26 24 -25 29 1 4 21 -28 37 -54 27z"/>
<path d="M1782 1053 c-6 -2 -10 -9 -6 -14 12 -20 -27 -41 -79 -43 -50 -1 -52
0 -58 29 -6 29 -7 29 -8 -7 l-1 -38 90 0 90 0 0 40 c0 40 -3 43 -28 33z"/>
<path d="M1557 1034 c-7 -8 13 -54 25 -54 9 0 10 7 2 38 -6 22 -15 27 -27 16z"/>
<path d="M1196 1014 c-8 -22 -9 -21 19 -21 21 0 23 2 14 18 -12 23 -25 24 -33
3z"/>
<path d="M1792 963 c11 -39 -39 -164 -90 -227 -13 -16 -21 -34 -18 -41 5 -15
-39 -59 -51 -52 -12 8 -73 -29 -73 -43 0 -6 -5 -8 -11 -5 -5 4 -19 -1 -29 -10
-28 -25 -40 -10 -40 51 0 30 -4 54 -9 54 -5 0 -9 -6 -8 -12 1 -42 -4 -58 -21
-58 -24 0 -94 49 -87 61 4 5 -8 9 -26 9 l-33 0 30 -32 c16 -18 33 -37 38 -43
5 -6 6 -4 1 5 -5 8 3 3 16 -11 14 -14 46 -34 71 -43 l45 -18 69 35 c82 42 188
145 177 173 -5 13 -3 15 7 9 9 -5 11 -4 6 4 -4 6 -3 17 2 24 14 17 52 132 52
157 0 11 -4 20 -10 20 -5 0 -9 -3 -8 -7z"/>
<path d="M1174 938 c3 -13 6 -29 6 -35 0 -10 26 -13 99 -13 l98 0 -11 35 -11
35 -94 0 c-92 0 -93 0 -87 -22z"/>
<path d="M1190 865 c0 -4 7 -19 15 -35 12 -22 23 -30 43 -30 15 0 22 4 16 8
-6 4 -14 17 -18 29 -6 19 -3 22 26 26 21 2 12 4 -24 5 -32 1 -58 0 -58 -3z"/>
<path d="M1390 851 c29 -11 59 -26 66 -35 15 -22 24 -20 24 4 0 13 -7 20 -18
20 -10 0 -27 7 -38 15 -10 8 -35 14 -54 14 -33 0 -32 -1 20 -18z"/>
<path d="M1613 848 c-6 -7 -14 -22 -18 -33 -8 -19 -9 -19 -12 3 -5 27 -23 19
-23 -10 0 -17 -4 -19 -25 -14 -22 6 -25 3 -25 -19 0 -20 5 -25 25 -25 15 0 25
6 25 14 0 15 49 36 84 36 12 0 31 -7 42 -15 20 -13 21 -13 20 15 -1 33 -6 36
-24 18 -17 -17 -28 -2 -12 17 10 12 10 15 -5 15 -9 0 -19 -9 -22 -20 -3 -11
-9 -20 -14 -20 -13 0 -11 24 3 38 8 8 8 12 1 12 -6 0 -15 -6 -20 -12z"/>
<path d="M1230 781 c0 -2 9 -19 21 -37 l21 -34 104 0 104 0 0 38 0 37 -125 0
c-69 0 -125 -2 -125 -4z"/>
<path d="M1569 713 c-10 -26 -12 -27 -19 -8 -8 19 -9 19 -9 -2 -1 -13 -7 -23
-14 -23 -7 0 -13 -9 -14 -21 -1 -15 2 -19 13 -15 9 3 20 6 25 6 6 0 8 4 4 9
-15 25 70 41 94 19 12 -11 13 -10 7 6 -4 12 -2 23 6 27 7 4 9 11 5 15 -3 4
-13 1 -22 -6 -9 -7 -19 -10 -22 -6 -4 4 -1 11 7 16 13 8 12 10 -3 10 -10 0
-20 -7 -23 -15 -4 -8 -10 -15 -15 -15 -4 0 -6 7 -3 15 4 8 3 15 0 15 -4 0 -11
-12 -17 -27z"/>
<path d="M2023 413 c-9 -3 -13 -30 -13 -84 0 -64 3 -79 15 -79 10 0 15 10 15
30 l0 30 110 0 110 0 0 -30 c0 -20 5 -30 15 -30 12 0 15 16 15 80 0 71 -2 80
-18 80 -15 0 -18 -6 -14 -30 l4 -30 -112 0 -112 0 4 30 c5 33 1 40 -19 33z"/>
<path d="M310 330 c0 -73 2 -80 20 -80 15 0 20 7 20 25 l0 24 128 3 127 3 0
50 0 50 -147 3 -148 3 0 -81z m270 25 l0 -25 -115 0 -115 0 0 25 0 25 115 0
115 0 0 -25z"/>
<path d="M667 404 c-4 -4 -7 -38 -7 -75 0 -52 4 -68 16 -73 9 -3 69 -6 134 -6
89 0 120 3 129 14 7 9 11 40 9 78 l-3 63 -136 3 c-74 1 -138 -1 -142 -4z m251
-71 l3 -43 -115 0 -116 0 0 45 0 46 113 -3 112 -3 3 -42z"/>
<path d="M990 330 c0 -73 2 -80 20 -80 15 0 20 7 20 25 0 25 0 25 96 25 98 0
134 -10 134 -35 0 -8 9 -15 20 -15 25 0 26 14 1 39 -16 16 -17 20 -5 25 11 4
14 18 12 48 l-3 43 -147 3 -148 3 0 -81z m270 25 l0 -25 -115 0 -115 0 0 25 0
25 115 0 115 0 0 -25z"/>
<path d="M1339 389 c-8 -16 -8 -28 0 -45 10 -23 14 -24 136 -24 119 0 125 -1
125 -21 0 -19 -5 -20 -130 -17 -118 3 -130 1 -130 -14 0 -16 13 -18 134 -18
109 0 138 3 150 16 19 18 20 38 6 65 -10 17 -22 19 -135 19 -104 0 -125 2
-125 15 0 13 21 15 130 15 109 0 130 2 130 15 0 13 -22 15 -140 15 -132 0
-140 -1 -151 -21z"/>
<path d="M1687 403 c-12 -11 -8 -128 5 -141 8 -8 55 -12 145 -12 126 0 133 1
133 20 0 19 -7 20 -130 20 l-130 0 0 45 0 45 130 0 c109 0 130 2 130 15 0 13
-22 15 -138 15 -76 0 -142 -3 -145 -7z"/>
<path d="M2330 330 l0 -80 161 0 c142 0 160 2 157 16 -3 14 -21 16 -140 15
-133 -2 -138 -1 -138 19 0 19 6 20 140 20 118 0 140 2 140 15 0 13 -22 15
-140 15 -118 0 -140 2 -140 15 0 13 22 15 140 15 118 0 140 2 140 15 0 13 -24
15 -160 15 l-160 0 0 -80z"/>
</g>
</svg>
